<?xml version="1.0" encoding="UTF-8"?>
<svg xmlns="http://www.w3.org/2000/svg" viewBox="0 0 245.25 438.33">
  <defs>
    <style>
      .cls-1 {
        fill: #0041ff;
        stroke-width: 2.23px;
      }

      .cls-1, .cls-2, .cls-3 {
        stroke: #414042;
        stroke-miterlimit: 10;
      }

      .cls-2 {
        fill: #a7a9ac;
        stroke-width: 3px;
      }

      .cls-4 {
        fill: none;
        isolation: isolate;
      }

      .cls-3, .cls-5 {
        fill: #231f20;
      }

      .cls-6 {
        fill: #d1d3d4;
      }

      .cls-5 {
        mix-blend-mode: overlay;
        opacity: .5;
      }
    </style>
  </defs>
  <g class="cls-4">
    <g id="Layer_2" data-name="Layer 2">
      <g id="BlueWolf">
        <g>
          <g>
            <path class="cls-2" d="m242.07,203.96c-3.61,6.78-12.37,9.53-19,12.35-2.8,1.19-4,.67-3.78,3,.12,1.23,1.35,2.53,2.04,3.47,1.28,1.78,2.6,3.52,3.76,5.38,2.53,4.1,3.64,8.63,1.11,13.05-1.67,2.93-4.54,5.08-7.71,6.23-3.9,1.41-8.09,1.17-12.16,1.12-3.52-.05-7.04-.17-10.56-.31-.66-.03-1.31.17-1.83.58-3.63,2.83-19.02,14.44-32.21,18.41,0,0-.01,0-.03.02-.16.05-.28.14-.36.26-.01,0-.01.01-.02.02-.22.31-.19.79.15,1.07,3.93,3.22,16.74,13.77,22.71,19.37,13.19,12.36,27.29,23.28,37.02,38.81,4.64,7.39,7.97,16.53,7.22,25.36-.73,8.71-7.68,19.51-18.28,17.18-1.82-.4-3.5-1.22-5.06-2.23-7.36-4.79-11.59-12.47-16.32-19.5-2.13-3.17-4.47-6.2-6.73-9.27-1.06-1.45-3.17-5.5-5.07-6.02-1.83-.5,1.03,92.36,1.25,94.92s-4.25,8.86-19.81,9.53c-5.22.22-10.19-.08-14.5-.83-8.54-1.47-14.53-4.67-14.83-8.95-.41-5.99.71-41.58.87-46.54.01-.27-.25-.47-.51-.37-1.58.57-3.2,1.13-4.85,1.41-.52.09-1.03.13-1.54.14-2.47.06-4.89-.7-7.21-1.55-.26-.09-.53.1-.52.38.16,4.96,1.29,40.54.87,46.53-.44,6.44-13.78,10.44-29.33,9.78-15.56-.67-20.03-6.97-19.81-9.53.23-2.56,3.09-95.42,1.25-94.92-1.9.52-4,4.57-5.06,6.02-2.27,3.07-4.6,6.1-6.74,9.27-4.73,7.03-8.96,14.71-16.32,19.5-1.55,1.01-3.24,1.83-5.05,2.23-10.61,2.33-17.55-8.47-18.29-17.18-.75-8.83,2.59-17.97,7.22-25.36,9.73-15.53,23.83-26.45,37.02-38.81,5.97-5.6,18.76-16.13,22.7-19.36.03-.02.06-.05.08-.08.32-.33.27-.85-.05-1.13-.07-.07-.17-.13-.29-.17-9.76-2.95-19.13-8.6-27.18-14.77-1.51-1.15-2.99-2.35-4.69-3.19-4.11-2.03-9.54-.6-13.98-.54-4.61.07-9.4-.33-13.51-2.61-6.93-3.84-7.97-11.54-3.98-17.97,1.15-1.86,2.47-3.6,3.76-5.38.69-.94,1.91-2.24,2.03-3.47.22-2.33-.98-1.81-3.78-3-6.63-2.82-15.38-5.57-19-12.35-1.48-2.78-2.36-6.79-1.01-9.77,1.22-2.68,3.6-4.4,6.29-5.46,10.5-4.14,14.03-9.31,15.25-11,9.93-13.67,7.36-57.19,5.14-81.19C26.63,72.54,40.4,8.54,55.96,1.87c.1-.05.21-.09.32-.12,4.9-1.69,8.6,5.75,10.28,9.07,4.13,8.17,6.83,17.09,9.42,25.84,2.9,9.83,5.46,19.75,8.12,29.64,1.1,4.07,2.21,8.15,3.45,12.18.96,3.15,1.45,7.22,3.71,9.78,2.51,2.85,6.96,2.87,10.48,2.82,11.21-.17,22.48-1.52,33.68-.3,5.67.62,15.93,2.81,19.16-3.68,1.01-2.03,1.72-4.21,2.42-6.36,2.44-7.54,4.37-15.25,6.41-22.91,2.44-9.14,4.89-18.29,7.74-27.31,2.36-7.45,4.84-15.11,8.74-21.92,1.4-2.44,3.94-6.59,7.14-7.05.72-.1,1.48-.02,2.26.32,15.56,6.67,29.34,70.67,27.11,94.67-2.22,24-4.79,67.52,5.14,81.19,1.23,1.69,4.75,6.86,15.25,11,2.69,1.06,5.07,2.78,6.29,5.46,1.36,2.98.47,6.99-1.01,9.77Z"/>
            <path class="cls-1" d="m163.22,334.91c-.55,9.15-2.7,18.53-8.02,26.15-2.36,3.38-5.24,6.16-8.49,8.38-5.67,3.87-12.44,6.04-19.47,6.75-1.54.16-3.07.25-4.61.29h-2.34c-1.54-.04-3.08-.13-4.61-.29-11.05-1.12-21.49-5.84-27.97-15.13-5.32-7.62-7.47-17-8.02-26.15-.49-8.21.92-16.15,3.78-23.82,2.62-7.04,5.34-13.97,6.49-21.44,1.68-10.93-3.23-18.01-6.11-21.11-1.11-1.2-1.92-1.8-1.92-1.8.57.24,1.2.46,1.87.67,5.77,1.84,14.9,2.77,22.58,3.25.06,0,.12.01.18.01,7.6.46,13.73.48,13.73.48h2.34s2.33.03,5.89-.02c.82-.01,1.63-.02,2.45-.04.19-.01.37-.01.56-.02,5.72-.14,13.28-.5,19.82-1.41,4.1-.57,7.8-1.35,10.38-2.42,0,0-.01,0-.03.02-.05.03-.17.12-.36.26-.01,0-.01.01-.02.02-1.98,1.48-10.42,8.7-8.36,22.11,1.15,7.47,3.87,14.4,6.49,21.44,2.86,7.67,4.27,15.61,3.77,23.82Z"/>
            <path class="cls-6" d="m121.46,271.14c16.69.3,34.44-1.26,49.59-8.79,4.59-2.28,8.96-4.97,13.33-7.64,5.04-3.09,10.12-6.17,14.71-9.9,6.24-5.07,11.08-11.23,13.81-18.83,1.41-3.92,2.03-10.26-1.16-13.56-4.28-4.43-12.77,1.29-16.88,3.29-8.95,4.36-17.44,9.71-26.84,13.02-2.17.77-4.56,1.7-6.95,1.36-4.67-.67-6.67-1.56-16.22-10.93s-13.87-12.64-19.94-12.86c-1.78-.06-2.91.05-3.73.16-6.12.84-13.55,3.32-23.1,12.69-9.55,9.37-11.56,10.26-16.22,10.93-2.99.43-6.66-1.08-9.45-2.04-3.4-1.17-6.65-2.74-9.82-4.43-5.6-3-10.94-6.45-16.63-9.27-3.4-1.68-11.4-5.4-14.77-1.92s-2.79,12.62,5.18,23.89c3.65,5.17,9.33,8.56,19.71,15.67,13.57,9.29,31.13,19.78,65.39,19.17h0Z"/>
            <ellipse class="cls-3" cx="79.59" cy="190.87" rx="13.22" ry="13.78"/>
            <ellipse class="cls-3" cx="164.64" cy="190.87" rx="13.22" ry="13.78"/>
            <rect class="cls-1" x="111.94" y="219.53" width="21.37" height="13.77" rx="6.44" ry="6.44"/>
            <path class="cls-1" d="m57.5,155.51c-.41,1.13-.38,2.42.05,3.55.57,1.48,1.74,2.53,3.1,3.28,3.71,2.05,7.99,3.08,12.03,4.29,4.3,1.29,8.64,2.49,13.04,3.44,1.19.26,2.38.49,3.57.71,1.94.35,3.91.65,5.88.55,2.19-.12,5.26-.75,6.35-2.91,1.41-2.81-.75-5.84-3.14-7.17-3.71-2.06-10.5-4.65-16.44-6.33-6.3-1.78-13.06-3.29-17.39-3.39-2.57-.06-5.67,1.11-6.86,3.54-.07.14-.13.29-.19.44Z"/>
            <path class="cls-1" d="m186.73,155.51c.41,1.13.38,2.42-.05,3.55-.57,1.48-1.74,2.53-3.1,3.28-3.71,2.05-7.99,3.08-12.03,4.29-4.3,1.29-8.64,2.49-13.04,3.44-1.19.26-2.38.49-3.57.71-1.94.35-3.91.65-5.88.55-2.19-.12-5.26-.75-6.35-2.91-1.41-2.81.75-5.84,3.14-7.17,3.71-2.06,10.5-4.65,16.44-6.33,6.3-1.78,13.06-3.29,17.39-3.39,2.57-.06,5.67,1.11,6.86,3.54.07.14.13.29.19.44Z"/>
            <path class="cls-1" d="m55.22,25.56c.45,0,.9.04,1.35.15,1.43.33,2.67,1.2,3.77,2.18,2.49,2.22,4.37,5.03,5.98,7.95,5.63,10.17,8.36,21.66,11.1,32.86.81,3.32,1.62,6.66,1.95,10.07.27,2.83.64,6.87-1.2,9.29-2.39,3.12-7.78,3.17-11.29,3.02-4.43-.19-8.98-1.04-13.36.05-3.08.77-5.83,2.45-8.52,4.14-.87.55-1.79,1.11-2.81,1.19-4.43.35-4.09-8.19-4.19-10.89-.35-8.79.37-17.6,1.66-26.29,1.2-8.08,2.31-16.87,5.48-24.45,1.14-2.73,2.75-5.29,5.03-7.22,1.42-1.19,3.24-2.02,5.07-2.03Z"/>
            <path class="cls-1" d="m189.72,25.56c-.45,0-.9.04-1.35.15-1.43.33-2.67,1.2-3.77,2.18-2.49,2.22-4.37,5.03-5.98,7.95-5.63,10.17-8.36,21.66-11.1,32.86-.81,3.32-1.62,6.66-1.95,10.07-.27,2.83-.64,6.87,1.2,9.29,2.39,3.12,7.78,3.17,11.29,3.02,4.43-.19,8.98-1.04,13.36.05,2.42.6,4.61,1.78,6.74,3.04,1.67.99,3.78,2.91,5.86,2.08,1.58-.64,2.12-2.57,2.35-4.25,1.51-11.27,1.02-22.78-.91-33.97-1.11-6.42-2.21-12.89-4.34-19.07-1.78-5.15-4.79-13.34-11.4-13.39Z"/>
            <circle class="cls-6" cx="83.79" cy="187.51" r="4.88"/>
            <circle class="cls-6" cx="168.2" cy="187.51" r="4.88"/>
          </g>
          <path class="cls-5" d="m242.07,203.96c-3.61,6.78-12.37,9.53-19,12.35-2.8,1.19-4,.67-3.78,3,.12,1.23,1.35,2.53,2.04,3.47,1.28,1.78,2.6,3.52,3.76,5.38,2.53,4.1,3.64,8.63,1.11,13.05-1.67,2.93-4.54,5.08-7.71,6.23-3.9,1.41-8.09,1.17-12.16,1.12-3.52-.05-7.04-.17-10.56-.31-.66-.03-1.31.17-1.83.58-3.63,2.83-19.02,14.44-32.21,18.41,0,0-.01,0-.03.02-.05.03-.17.12-.38.28-.22.31-.19.79.15,1.07,3.93,3.22,16.74,13.77,22.71,19.37,13.19,12.36,27.29,23.28,37.02,38.81,4.64,7.39,7.97,16.53,7.22,25.36-.73,8.71-7.68,19.51-18.28,17.18-1.82-.4-3.5-1.22-5.06-2.23-7.36-4.79-11.59-12.47-16.32-19.5-2.13-3.17-4.47-6.2-6.73-9.27-1.06-1.45-3.17-5.5-5.07-6.02-1.83-.5,1.03,92.36,1.25,94.92s-1.8,10.08-17.36,10.75c-2.19.09-4.81.18-7,.28-1.48.06-7.24,0-8.5-.88s-.47-5.16-.47-6.72c.02-10.37.17-20.73.36-31.1.18-9.9-.63-20.41,1.47-30.12.61-2.82,1.54-5.54,2.96-8,6.62-11.46,6.02-39.56,1.75-51.79-3.79-10.85-13.21-23.8-.07-39.99.25-.31.5-.62.77-.93,4.4-5.13,11.1-10.6,20.96-16.42,15.23-9,24.91-22.41,27.67-39.63.14-.83.26-1.67.36-2.52,1.04-8.75.71-17.59.47-26.37-.34-12.32.41-24.55,1.55-36.84,1.55-16.77,1.03-33.66.19-50.53-.45-8.72-.98-17.43-1.36-26.11-.72-16.46-3.89-30.65-7.32-42.91-2.75-9.79-5.66-18.35-7.61-25.85.72-.1,1.48-.02,2.26.32,15.56,6.67,29.34,70.67,27.11,94.67-2.22,24-4.79,67.52,5.14,81.19,1.23,1.69,4.75,6.86,15.25,11,2.69,1.06,5.07,2.78,6.29,5.46,1.36,2.98.47,6.99-1.01,9.77Z"/>
        </g>
      </g>
    </g>
  </g>
</svg>