<?xml version="1.0" encoding="UTF-8"?>
<svg id="Layer_2" data-name="Layer 2" xmlns="http://www.w3.org/2000/svg" viewBox="0 0 502.41 442.34">
  <defs>
    <style>
      .cls-1 {
        fill: none;
      }

      .cls-1, .cls-2 {
        stroke: #414042;
        stroke-miterlimit: 10;
        stroke-width: 3px;
      }

      .cls-2 {
        fill: #ed1c24;
      }

      .cls-3 {
        fill: #b80010;
      }
    </style>
  </defs>
  <g id="Bow">
    <g>
      <path class="cls-2" d="m500.64,168.18c-.14,5.71-.33,11.41-.57,17.11-.23,5.3-.5,10.59-.82,15.88-.39,6.49-.86,12.98-1.39,19.46-1.1,13.45-4.31,30.14-16.91,37.9-6.22,3.84-13.88,4.34-21.2,4.38h-.24c-57.71.21-120.27-21.67-161.39-63.1-3.97-4-7.7-8.25-11.06-12.78-1.39-1.86-2.72-3.77-3.97-5.73l2.95-58.53C323.26,63.07,380.52,15.41,451.06,2.82c8.98-1.6,18.78-2.52,26.75,1.92,18.01,10.01,17.6,40.61,19.25,58.5,3.23,34.87,4.42,69.93,3.58,104.94Z"/>
      <path class="cls-2" d="m216.36,122.77C179.14,63.07,121.88,15.42,51.34,2.82c-8.98-1.6-18.78-2.52-26.75,1.92C6.58,14.75,6.99,45.35,5.34,63.24,2.11,98.11.92,133.17,1.76,168.18c.42,17.5,1.34,35,2.78,52.45,1.1,13.45,4.32,30.14,16.92,37.9,6.29,3.88,14.05,4.36,21.44,4.38,57.71.21,120.27-21.68,161.39-63.1,5.61-5.65,10.74-11.8,15.03-18.51"/>
      <path class="cls-2" d="m221.51,181.3s-79.49,189.14-138.67,240.28c-1.49,1.29-.06,3.62,1.85,3.02,11.29-3.56,35.77-7.76,64.19-25.08.59-.36,1.34.15,1.19.84-1.17,5.23-6.2,21.36-26.02,39.1-.59.52-.15,1.49.63,1.38,7.53-1.04,14.56-3,21.76-5.35,31.1-10.19,54.35-28.5,69.93-57.67,19.34-36.2,28.78-80.48,32.44-121.07,2.26-25.07,2.43-50.29,2.07-75.44"/>
      <path class="cls-2" d="m417.38,424.6c-11.29-3.56-35.77-7.76-64.19-25.08-.6-.37-1.34.15-1.19.83.99,4.42,4.74,16.65,17.88,31.05,1.52,1.68,3.17,3.38,4.97,5.11,1.01.97,2.07,1.95,3.17,2.94.12.11.2.24.23.38.15.51-.25,1.09-.86,1-7.53-1.04-14.57-2.99-21.77-5.35-19.4-6.36-35.75-15.88-49.08-29.23-.22-.2-.42-.41-.61-.62-7.79-7.91-14.53-17.14-20.24-27.82-19.34-36.2-28.78-80.48-32.44-121.07-2.26-25.07-2.43-50.29-2.07-75.44h29.38s79.49,189.13,138.67,240.28c1.49,1.28.05,3.62-1.85,3.02Z"/>
      <path class="cls-1" d="m477.82,4.74c-25.64,33.23-191.78,118.03-191.78,118.03"/>
      <path class="cls-1" d="m214.5,122.77S48.36,37.97,22.72,4.74"/>
      <path class="cls-2" d="m287.58,126.14v50.67c0,2.48-2.01,4.49-4.49,4.49h-64.11c-2.48,0-4.49-2.01-4.49-4.49v-50.67c0-2.47,2.01-4.48,4.49-4.48h64.11c2.48,0,4.49,2.01,4.49,4.48Z"/>
      <path class="cls-3" d="m377.39,440.83c-7.53-1.04-14.57-2.99-21.77-5.35-19.4-6.36-35.75-15.88-49.08-29.23-.22-.2-.42-.41-.61-.62-7.18-7.57-13.44-16.32-18.8-26.34-19.34-36.2-28.78-80.48-32.44-121.07-2.26-25.07-2.43-50.29-2.07-75.44h8.71s17.33,216.43,91.11,245.76c4.75,1.89,11.03,4.16,17.17,4.63,1.52,1.68,3.62,3.19,5.42,4.92,1.01.97,1.65,1.18,2.75,2.17.12.11.24.21.27.35.15.51-.05.31-.66.22Z"/>
      <path class="cls-3" d="m124.79,440.83c7.53-1.04,14.57-2.99,21.77-5.35,19.4-6.36,35.75-15.88,49.08-29.23.22-.2.42-.41.61-.62,7.18-7.57,13.44-16.32,18.8-26.34,19.34-36.2,28.78-80.48,32.44-121.07,2.26-25.07,2.43-50.29,2.07-75.44h-8.71s-17.33,216.43-91.11,245.76c-4.75,1.89-11.03,4.16-17.17,4.63-1.52,1.68-3.62,3.19-5.42,4.92-1.01.97-1.65,1.18-2.75,2.17-.12.11-.24.21-.27.35-.15.51.05.31.66.22Z"/>
      <path class="cls-3" d="m497.67,201.17c-.39,6.49-.86,12.98-1.39,19.46-1.1,13.45-4.31,30.14-16.91,37.9-6.22,3.84-13.88,4.34-21.2,4.38h-.24c-57.71.21-118.02-22.64-159.14-64.07-3.97-4-9.95-12.14-13.31-16.67l2.64-1.98s66.88,68.63,133.3,67.76c50.6-.66,62.92-17.7,76.25-46.78Z"/>
      <path class="cls-3" d="m4.53,200.34c.39,6.49.86,12.98,1.39,19.46,1.1,13.45,4.31,30.14,16.91,37.9,6.22,3.84,13.88,4.34,21.2,4.38h.24c57.71.21,118.89-22.25,160.01-63.68,3.97-4,9.14-11.44,12.5-15.97l-2.23-1.64s-67.35,67.21-133.77,66.34c-50.6-.66-62.92-17.7-76.25-46.78Z"/>
      <path class="cls-3" d="m288.21,121.67c.88-3.68,17.03-14.36,25.91-21.5,34.97-28.11,86.59-60.88,133.28-85.31,4.47-2.34,9-4.6,13.74-6.35,4.29-1.58,10.66-3.98,15.28-3-2.58,5.24-9.05,9.94-13.64,13.38-5.73,4.3-11.52,8.41-17.3,12.63-11.79,8.62-25.85,15.99-38.17,23.85-38.27,24.42-79.09,45.02-119.15,66.32.01,0,.04,0,.04-.02Z"/>
      <path class="cls-3" d="m213.87,121.93c-.88-3.68-17.03-14.36-25.91-21.5C152.99,72.32,101.37,39.55,54.68,15.13c-4.47-2.34-9-4.6-13.74-6.35-4.29-1.58-10.66-3.98-15.28-3,2.58,5.24,9.05,9.94,13.64,13.38,5.73,4.3,11.52,8.41,17.3,12.63,11.79,8.62,25.85,15.99,38.17,23.85,38.27,24.42,79.09,45.02,119.15,66.32-.01,0-.04,0-.04-.02Z"/>
      <path class="cls-3" d="m286.07,127.95l-.03,48.56c0,2.48-.41,3.68-2.89,3.68l-63.84-.29c-2.48,0-3.25-.8-3.25-3.28,0,0-.06-5.94-.06-5.94,12.14.46,24.27,1.02,36.41,1.33,4.81.12,9.63.22,14.45.19,4.06-.02,8.1.14,12.09-.74.34-.08.7-.17.96-.41.31-.29.41-.73.5-1.14,1.33-6.5.95-13.13.85-19.72-.1-6.77-.35-13.55-.66-20.31-.1-2.21-.21-4.43-.32-6.64l3.28-.18c2.48,0,2.51,2.42,2.51,4.89Z"/>
    </g>
  </g>
</svg>