<?xml version="1.0" encoding="UTF-8"?>
<svg xmlns="http://www.w3.org/2000/svg" viewBox="0 0 252.44 501.87">
  <defs>
    <style>
      .cls-1 {
        stroke-width: 3px;
      }

      .cls-1, .cls-2 {
        fill: #fff;
      }

      .cls-1, .cls-3 {
        stroke: #414042;
        stroke-miterlimit: 10;
      }

      .cls-4 {
        fill: none;
        isolation: isolate;
      }

      .cls-2, .cls-5 {
        mix-blend-mode: overlay;
        opacity: .5;
      }

      .cls-5 {
        fill: #231f20;
      }

      .cls-3 {
        fill: #b90b29;
        stroke-width: 2px;
      }
    </style>
  </defs>
  <g class="cls-4">
    <g id="Layer_2" data-name="Layer 2">
      <g id="Candycane">
        <g>
          <path class="cls-1" d="m249.7,167.8c-.49,4.55-1.12,9.08-1.88,13.58-1.09,6.49-2.47,14.46-6.07,20.53-1.29,2.18-2.86,4.11-4.8,5.65-.04.03-.07.06-.11.09-2.98,2.3-7.05,3.39-10.76,3.66-5.58.4-11.27-1.62-15.42-5.35-10.08-9.06-7.91-26.37-8.22-38.56-.25-9.67-.32-19.32-.47-28.99h0c-.09-5.09-.19-10.18-.35-15.26-.27-8.58-2.01-17.1-4.93-25.14h-.01c-1.24-3.44-2.7-6.79-4.36-10.02-3.92-7.62-9.31-14.41-15.71-20.09-4.59-4.07-9.67-7.57-15.06-10.51-1.45-.79-2.92-1.55-4.42-2.26-6.38-3.03-13.26-5.53-20.21-6.85-5.88-1.11-11.9-1.48-17.87-1.08-.67.04-1.35.1-2.02.16-4.38.41-8.5,1.4-12.6,2.66t-.02.01c-2.08.63-4.17,1.33-6.27,2.07-12.83,4.45-22.58,11.67-29.8,20.79h-.01c-10.45,13.2-15.56,30.35-16.89,48.79-.06.82-.11,1.63-.15,2.45-.91,17.1-.82,34.34-.43,51.6h0c.45,20.09,1.3,40.19,1.45,60.12.01,1.4.02,2.79.03,4.19.15,19.62.29,39.22.41,58.84h0c.12,17.85.2,35.69.24,53.53h0c.04,18.18.03,36.34-.07,54.52-.07,15.83-.21,31.67-.43,47.51-.02,1.22-.03,2.55-.04,3.95-.14,11.83-.71,29.18-8.64,37.37-3.95,4.09-9.73,5.9-18.19,3.61-5.23-1.41-9.17-3.87-12.13-7.03-9.61-10.24-9.01-27.92-9.35-41.68-.27-11.01-.52-22.02-.74-33.02v-.02c-.27-12.47-.5-24.93-.7-37.39-.1-6.46-.2-12.93-.28-19.39-.27-19.7-.47-39.39-.59-59.09-.11-18-.16-35.99-.15-53.99h0c.01-11.22.04-22.4.09-33.61.04-7.12-.04-14.4-.12-21.78-.22-20.35-.48-41.47,1.45-62.1h0c.57-6.1,1.33-12.15,2.34-18.12,2.14-12.66,5.39-24.97,10.31-36.64v-.03c1.59-3.77,3.35-7.48,5.31-11.11,11.7-21.71,32.57-38.6,54.51-50.22.08-.04.17-.09.25-.13,10.95-5.77,22.92-9.55,35.19-11.26,13.28-1.85,27.14-1.53,40.42.14,1.04.13,2.09.29,3.13.47h.05c7.41,1.3,14.71,3.83,21.51,6.9,7.24,3.28,14.06,7.43,20.36,12.28,6.36,4.9,12.18,10.5,17.42,16.59,2.48,2.88,4.83,5.87,7.05,8.95,2.59,3.59,5.01,7.3,7.26,11.12,4.27,7.25,7.93,14.86,11,22.69,1.34,3.42,2.57,6.89,3.68,10.4,1.48,4.64,2.76,9.34,3.84,14.09.48,2.11.92,4.24,1.31,6.36,0,.01,0,.03,0,.04,3.35,18.12,3.62,36.69,1.65,55.01Z"/>
          <path class="cls-3" d="m249.7,167.8c-.49,4.55-1.12,9.08-1.88,13.58-1.09,6.49-2.47,14.46-6.07,20.53-6.08-11.59-21.69-32.9-21.69-32.9l-18.09-30.6h0c-.09-5.09-.19-10.18-.35-15.26-.27-8.58-2.01-17.1-4.93-25.14,20.37,15.48,44.33,54.83,53.01,69.79Z"/>
          <path class="cls-3" d="m248.04,112.75c-11.8-40.97-64.4-52.36-86.49-55.36-1.45-.79-2.92-1.55-4.42-2.26-6.38-3.03-13.26-5.53-20.21-6.85-5.88-1.11-11.9-1.48-17.87-1.08.99-.07,2.95-1.94,3.84-2.47,1.26-.75,2.54-1.47,3.84-2.16,2.88-1.52,5.86-2.84,8.9-4.01,6.1-2.35,12.43-4.06,18.82-5.41,8.23-1.74,16.64-2.91,25.04-2.5,5.76.28,11.51,1.32,16.91,3.35s10.67,5.17,15.7,8.15c3.17,1.87,6.34,3.82,8.91,6.46,4.11,4.21,6.78,9.92,9.68,14.98,3.34,5.82,6.07,12.08,8.52,18.32,3.12,7.96,5.62,16.16,7.52,24.49.48,2.11.92,4.24,1.31,6.36Z"/>
          <path class="cls-3" d="m154.56,3.37c-11.32.43-25.92,2.81-40.17,10.33-22.39,11.82-39.27,41.67-46.05,59.19h-.01c-10.45,13.2-15.56,30.35-16.89,48.79-3.86-11.72-11.07-38.51-5.72-61.98,3.46-15.14,15.02-32.15,30.1-45.68,10.95-5.77,22.92-9.55,35.19-11.26,13.28-1.85,27.14-1.53,40.42.14,1.04.13,2.09.29,3.13.47Z"/>
          <path class="cls-3" d="m52.34,240.04c-3.59-6.12-7.12-12.28-10.64-18.44-8.7-15.25-17.53-30.5-25.02-46.4-3.64-7.74-6.88-15.55-9.23-23.79-.52-1.83-1.01-3.67-1.46-5.51-1.03-4.19-1.87-8.44-2.3-12.74s-.07-8.39.5-12.74c.56-4.26,1.23-8.5,2.04-12.72,1.6-8.35,3.73-16.6,6.58-24.62.91-2.55,1.88-5.08,2.93-7.57-.19,6.36-.68,12.59-.03,18.95,1.23,11.99,5.05,23.94,9.34,35.18,5.08,13.3,11.24,26.57,20.2,37.72,3.14,3.91,5.73,7.35,5.7,12.52-.03,6.22.34,12.47.53,18.69.37,12.42.73,24.85.83,37.28.01,1.4.02,2.79.03,4.19Z"/>
          <path class="cls-3" d="m53.08,352.2c-.02-1.11-2.52-3.67-3.18-4.64-1.24-1.84-2.46-3.68-3.67-5.54-2.33-3.57-4.6-7.17-6.82-10.8-4.44-7.27-8.66-14.67-12.65-22.2-7.53-14.19-14.92-28.9-19.97-44.18-1.87-5.65-3.54-11.36-5.11-17.1.01-11.21.04-22.39.09-33.6.04-7.12-.04-14.4-.12-21.78.04,3.82,2.66,8.9,3.8,12.57,4.67,15.02,10.12,29.73,17.93,43.46,7.45,13.09,15.78,25.72,23.72,38.52,2.16,3.48,4.35,7.04,5.22,11.04,1.37,6.32.52,13.66.55,20.13.06,11.37.03,22.75.22,34.12Z"/>
          <path class="cls-3" d="m52.92,406.93c.63,1.03-.02,4.52-.03,5.77-.01,2.2-.03,4.4-.04,6.6-.03,4.4-.07,8.8-.11,13.2-.08,8.4-.8,17.09.09,25.44-.11-1.04-1.81-2.81-2.38-3.71-.93-1.46-1.87-2.93-2.79-4.4-1.78-2.82-3.55-5.66-5.3-8.5-3.51-5.69-6.95-11.41-10.34-17.17-6.77-11.52-13.3-23.18-19.58-34.97-3.56-6.68-6.41-14.08-8.29-21.45-2.18-8.55-1.87-17-1.97-25.74-.15-13.42-.27-26.84-.35-40.26.53.62.64,1.56.73,2.4.35,3.14,1.26,6.2,2.21,9.21,7.07,22.5,16.35,44.97,29.95,64.34,2.51,3.57,13.49,21.52,18.2,29.23Z"/>
          <path class="cls-3" d="m27.2,469.37s-9.51,12.41-13.71,22.97c-9.61-10.24-9.01-27.92-9.35-41.68-.27-11.01-.52-22.02-.74-33.02,4.98,15.29,14.54,41.79,23.8,51.73Z"/>
          <path class="cls-2" d="m239.21,81.9c1.34,3.42,2.57,6.89,3.68,10.4-9.48-14.49-19.01-29.13-30.72-41.7C179.63,15.67,126.84,3.54,82.8,23.64c-15.22,6.95-28.5,17.56-39.81,29.81-10.76,11.65-22.12,25.51-28.56,40.09-2.55,5.77-4.9,13.21-8.99,18.61,2.14-12.66,5.39-24.97,10.31-36.64v-.03c1.59-3.77,3.35-7.48,5.31-11.11,11.7-21.71,32.57-38.6,54.51-50.22.08-.04.17-.09.25-.13,10.95-5.77,22.92-9.55,35.19-11.26,13.28-1.85,27.14-1.53,40.42.14,1.04.13,2.09.29,3.13.47h.05c7.41,1.3,14.71,3.83,21.51,6.9,7.24,3.28,14.06,7.43,20.36,12.28,6.36,4.9,12.18,10.5,17.42,16.59,2.48,2.88,4.83,5.87,7.05,8.95,2.59,3.59,5.01,7.3,7.26,11.12,4.27,7.25,7.93,14.86,11,22.69Z"/>
          <path class="cls-5" d="m104.41,50.03c-2.08.63-4.17,1.33-6.27,2.07-12.83,4.45-22.58,11.67-29.8,20.79h-.01c-10.45,13.2-15.56,30.35-16.89,48.79-.06.82-.11,1.63-.15,2.45-.91,17.1-.82,34.34-.43,51.6h0c.45,20.09,1.3,40.19,1.45,60.12.01,1.4.02,2.79.03,4.19.15,19.62.29,39.22.41,58.84h0c.12,17.85.2,35.69.24,53.53h0c.04,18.18.03,36.34-.07,54.52-.07,15.83-.21,31.67-.43,47.51-.02,1.22-.03,2.55-.04,3.95-.14,11.83-.71,29.18-8.64,37.37v-190.38c0-47.48.65-94.99-.13-142.47-.26-15.67-1.51-33.42.59-50.12,1.37-10.91,4.17-21.38,9.61-30.51,6.47-10.87,15.87-19.95,26.9-26.13,5.53-3.09,10.92-4.15,17.05-5.5,1.13-.24,4.11-.32,6.58-.62Z"/>
        </g>
      </g>
    </g>
  </g>
</svg>