<?xml version="1.0" encoding="UTF-8"?>
<svg xmlns="http://www.w3.org/2000/svg" viewBox="0 0 349.21 437.46">
  <defs>
    <style>
      .cls-1, .cls-2, .cls-3 {
        fill: #fff;
      }

      .cls-2 {
        mix-blend-mode: soft-light;
      }

      .cls-2, .cls-3, .cls-4 {
        opacity: .5;
      }

      .cls-5 {
        fill: #ba8d62;
        stroke-width: 3px;
      }

      .cls-5, .cls-6, .cls-7 {
        stroke-miterlimit: 10;
      }

      .cls-5, .cls-7 {
        stroke: #414042;
      }

      .cls-6 {
        stroke: #fff;
        stroke-width: 7px;
      }

      .cls-6, .cls-8, .cls-7 {
        fill: none;
      }

      .cls-6, .cls-7 {
        stroke-linecap: round;
      }

      .cls-8 {
        isolation: isolate;
      }

      .cls-7 {
        stroke-width: 6px;
      }

      .cls-9 {
        fill: #bf1526;
      }

      .cls-3, .cls-4 {
        mix-blend-mode: overlay;
      }

      .cls-4 {
        fill: #231f20;
      }

      .cls-10 {
        fill: #414042;
      }
    </style>
  </defs>
  <g class="cls-8">
    <g id="Layer_2" data-name="Layer 2">
      <g id="GingerbreadMan">
        <g>
          <path class="cls-5" d="m343.57,297.11c-2.89,4.15-7.33,7.25-13.4,8.59-10.95,2.42-22.93-1.67-32.9-5.87-31.67-13.33-55.17-37.78-57.67-39.67-2.12-1.6.61,6.23,2.34,10.67,10.01,25.84,25.33,49.68,32.95,76.37.44,1.54.85,3.1,1.24,4.66,7.16,28.96,14.08,74.97-24.83,82.97-8.81,1.82-18.25,1.33-26.5-2.45-2.73-1.24-5.28-2.81-7.65-4.63-5.68-4.33-10.36-10.05-14.29-16.06-13.65-20.9-26.97-45.52-26.83-71.14.01-.55-.43-1-.98-1s-.99.45-.99,1c.07,13.88-4.23,27.5-9.95,40.01-5.71,12.47-13.01,25.43-21.58,36.2-5.24,6.6-11.64,12.6-19.22,16.41-7.68,3.86-18.18,3.07-26.37,1.44-38.21-7.61-31.04-53.75-23.86-82.75,7.07-28.6,23.59-53.69,34.19-81.03,1.72-4.44,4.46-12.27,2.33-10.67-2.5,1.89-26,26.34-57.66,39.67-9.97,4.2-21.95,8.29-32.91,5.87-9.21-2.03-14.67-8.12-16.66-15.77-1.03-3.94-1.14-8.29-.36-12.72,3.53-20.21,14.03-33.63,29.73-46.14,15.89-12.68,33.64-22.99,51.53-32.57,19.14-10.26,32.57-14.44,39.15-16.05,1.66-.41,2.08-2.57.69-3.57-10.08-7.27-36.37-29.92-41.15-71.28-.26-2.2-.45-4.46-.58-6.77C78.1,41.28,121.27,8.88,161.4,2.62h.01c4.8-.75,9.56-1.12,14.19-1.12,43.34,0,94.11,32.66,90.45,99.33-2.51,45.52-30.93,70.23-41.63,77.97-1.4,1.02-.95,3.2.74,3.58,7,1.58,21.39,5.73,40.78,16.12,17.88,9.58,35.63,19.89,51.53,32.57,15.7,12.51,26.2,25.93,29.73,46.14,1.29,7.36.14,14.51-3.63,19.9Z"/>
          <circle class="cls-10" cx="217.31" cy="91.72" r="19.11"/>
          <path class="cls-7" d="m155.2,118.2c11.44,17.8,34.21,13.5,43,0"/>
          <path class="cls-9" d="m194.53,255.77c0,6.9-3.92,12.89-9.67,15.85-.42.23-.85.43-1.29.61-.98.41-2.01.74-3.08.97h-.04c-1.21.26-2.46.4-3.75.4-9.85,0-17.83-7.98-17.83-17.83,0-.25.01-.5.02-.75v-.02c.32-7.69,5.51-14.12,12.58-16.28.2-.06.41-.12.61-.18h.01c1.47-.39,3.02-.6,4.61-.6,8.62,0,15.81,6.11,17.47,14.24.12.58.21,1.17.27,1.76.06.6.09,1.21.09,1.83Z"/>
          <path class="cls-9" d="m194.53,210.77c0,5.17-2.2,9.82-5.71,13.08-1.92,1.78-4.23,3.15-6.79,3.94-1.68.54-3.47.82-5.33.82-9.29,0-16.92-7.11-17.75-16.19-.05-.54-.08-1.09-.08-1.65,0-6,2.96-11.31,7.51-14.53,2.91-2.08,6.47-3.3,10.32-3.3,9.85,0,17.83,7.99,17.83,17.83Z"/>
          <path class="cls-6" d="m82.94,204.35s5.55,1.42,6.89,3.58,0,15.33,2.33,16.17,6,1.92,7,4.42-2.86,12.45-.86,13.95,5.78,2.47,6.28,4.97-2.02,11-3.19,13.5"/>
          <path class="cls-6" d="m250.83,263.72s-2.66-5.08-1.95-7.52c.72-2.44,11.4-10.26,10.45-12.55s-2.59-5.74-1.4-8.16,11.17-6.2,10.94-8.69-2.03-5.95-.51-7.99,9.53-5.86,12.17-6.66"/>
          <path class="cls-6" d="m82.94,336.61s5.3,12.67,10.85,13.11,8.93-1.56,14.04,1.33c2.19,1.24,7.11,12,10.89,12.44s10.67-2.67,13.78-.44,4.89,9.33,11.56,10,19.11-4.22,19.11-4.22"/>
          <path class="cls-6" d="m265.8,336.05s-5.3,13.22-10.85,13.67-8.93-1.56-14.04,1.33c-2.19,1.24-7.11,12-10.89,12.44s-10.67-2.67-13.78-.44-4.89,9.33-11.56,10c-6.67.67-18.42-4.33-18.42-4.33"/>
          <path class="cls-9" d="m194.53,300.77c0,9.85-7.98,17.83-17.83,17.83-1.86,0-3.66-.28-5.34-.81-.57-.18-1.14-.39-1.68-.63,0,0-.02,0-.06-.03-6.33-2.73-10.75-9.03-10.75-16.36,0-3.85,1.21-7.41,3.29-10.32,2.11-2.98,5.12-5.28,8.63-6.51,1.85-.66,3.84-1.01,5.91-1.01,9.85,0,17.83,7.99,17.83,17.84Z"/>
          <circle class="cls-10" cx="133.97" cy="91.72" r="19.11"/>
          <circle class="cls-1" cx="139.34" cy="89.35" r="7.86"/>
          <circle class="cls-1" cx="224.1" cy="88.94" r="7.44"/>
          <path class="cls-3" d="m190,220.99c2.35-7.34.16-17.94-6.17-22.72-4.26-3.2-11.36-4.57-17.45-2.03,2.91-2.08,6.47-3.3,10.32-3.3,9.85,0,17.83,7.99,17.83,17.83,0,5.17-2.2,9.82-5.71,13.08.48-.92.87-1.88,1.18-2.86Z"/>
          <path class="cls-3" d="m194.53,255.77c0,6.9-3.92,12.89-9.67,15.85,2.39-2.68,3.87-6.25,4.74-9.64,1.39-5.37.89-11.26-2.37-15.88-.2-.27-.4-.55-.62-.81-3.61-4.51-9.16-6.72-14.85-6.59.1-.05.21-.11.32-.16h.01c1.47-.39,3.02-.6,4.61-.6,8.62,0,15.81,6.11,17.47,14.24.12.58.21,1.17.27,1.76.06.6.09,1.21.09,1.83Z"/>
          <path class="cls-3" d="m194.53,300.77c0,9.85-7.98,17.83-17.83,17.83-1.86,0-3.66-.28-5.34-.81,3.94-.26,7.88-1.31,11.11-3.55,4.8-3.34,7.51-9.34,7.17-15.15-.37-6.34-4.82-12.06-10.84-13.94-2.62-.83-5.31-1.02-8.01-1.21,1.85-.66,3.84-1.01,5.91-1.01,9.85,0,17.83,7.99,17.83,17.84Z"/>
          <path class="cls-4" d="m343.57,297.11c-.98-13.41-6.36-26.69-13.65-37.66-12.61-18.97-33.88-31-53.75-41.4-20.86-10.91-42.79-19.59-64.69-28.17-3.61-1.41-5.53-4.91-4.33-8.66.75-2.36,2.38-4.31,3.91-6.25.15-.19.29-.37.43-.55,12.93-16.66,26.27-34.65,32.23-55.16,10.66-36.67-6.2-75.72-36.21-97.91-9.91-7.33-21.2-12.77-33.09-16.05-4.27-1.18-8.62-2.08-13.01-2.68,4.8-.75,9.56-1.12,14.19-1.12,43.34,0,94.11,32.66,90.45,99.33-2.51,45.52-30.93,70.23-41.63,77.97-1.4,1.02-.95,3.2.74,3.58,7,1.58,21.39,5.73,40.78,16.12,17.88,9.58,35.63,19.89,51.53,32.57,15.7,12.51,26.2,25.93,29.73,46.14,1.29,7.36.14,14.51-3.63,19.9Z"/>
          <path class="cls-4" d="m251.3,434.83c-8.81,1.82-18.25,1.33-26.5-2.45-2.73-1.24-5.28-2.81-7.65-4.63.8.12,1.61.22,2.42.3,15.41,1.53,34.08-1.67,44.8-13.81,6.43-7.29,9.25-17.13,10.21-26.8,1.32-13.12,1.27-26.81.31-40.24.44,1.54.85,3.1,1.24,4.66,7.16,28.96,14.08,74.97-24.83,82.97Z"/>
          <path class="cls-2" d="m127.49,188.22c-22.34,10.94-45.47,20.45-66.6,33.59-24.98,15.55-45.44,36.42-56.61,63.95-.58,1.42-1.14,2.86-1.91,4.17-1.03-3.94-1.14-8.29-.36-12.72,3.53-20.21,14.03-33.63,29.73-46.14,15.89-12.68,33.64-22.99,51.53-32.57,19.14-10.26,32.57-14.44,39.15-16.05,1.66-.41,2.08-2.57.69-3.57-10.08-7.27-36.37-29.92-41.15-71.28,9.05,25.19,26.76,47.84,46.94,64.59,7.5,6.23,7.89,11.48-1.41,16.03Z"/>
          <path class="cls-4" d="m182.03,227.79c-1.68.54-3.47.82-5.33.82-9.29,0-16.92-7.11-17.75-16.19.32.83.57,1.49.63,1.62,1.15,2.36,2.57,4.49,4.42,6.35,3.32,3.34,7.66,5.68,12.3,6.49,1.88.33,3.8.7,5.73.91Z"/>
          <path class="cls-4" d="m180.45,273.2c-1.21.26-2.46.4-3.75.4-6.48,0-12.58-3.63-15.68-9.33-1.52-2.8-2.33-6.03-2.06-9.22-.15,1.77.58,3.78,1.3,5.38s1.6,3.05,2.65,4.41c2.11,2.72,4.84,4.96,7.94,6.46,2.88,1.4,6.37,2.59,9.6,1.9Z"/>
          <path class="cls-4" d="m169.62,317.13c-6.33-2.73-10.75-9.03-10.75-16.36,0-3.85,1.21-7.41,3.29-10.32-1.58,3.72-3.35,10.06-.75,16.27,3.22,7.68,7.67,10.14,8.21,10.41Z"/>
        </g>
      </g>
    </g>
  </g>
</svg>