<?xml version="1.0" encoding="UTF-8"?>
<svg xmlns="http://www.w3.org/2000/svg" viewBox="0 0 234.62 234.62">
  <defs>
    <style>
      .cls-1 {
        stroke-width: 1.52px;
      }

      .cls-1, .cls-2, .cls-3 {
        fill: none;
      }

      .cls-1, .cls-2, .cls-4, .cls-5 {
        stroke: #414042;
        stroke-miterlimit: 10;
      }

      .cls-2 {
        stroke-width: 1.44px;
      }

      .cls-3 {
        isolation: isolate;
      }

      .cls-4 {
        fill: #fff;
        stroke-width: 2.87px;
      }

      .cls-6 {
        fill: #231f20;
        mix-blend-mode: hard-light;
        opacity: .5;
      }

      .cls-5 {
        fill: #ed1c24;
        stroke-width: 2.15px;
      }
    </style>
  </defs>
  <g class="cls-3">
    <g id="Layer_2" data-name="Layer 2">
      <g id="RedBall">
        <g>
          <path class="cls-4" d="m233.18,117.31c0,64-51.88,115.88-115.87,115.88-26.6,0-51.12-8.96-70.67-24.04C19.15,187.96,1.44,154.7,1.44,117.31,1.44,53.31,53.31,1.44,117.31,1.44c51.4,0,94.98,33.47,110.15,79.81,3.71,11.35,5.72,23.47,5.72,36.06Z"/>
          <path class="cls-5" d="m111.28,1.78s-32.08,5.55-27.48,7.64c5.27,2.39,22.34,10.21,22.34,10.21,0,0,31.57-2.6,38.94-2.23s2.87-11.86,2.87-11.86c0,0-15.45-4.3-36.68-3.76Z"/>
          <path class="cls-5" d="m30.49,55.06s19.09,6.57,19.91,14.24c.72,6.74-8.42,40.32-8.42,40.32l-27.13,12.47s-8.02-27.41-6.7-33.52c1.54-7.12,14.68-29.69,22.34-33.52Z"/>
          <path class="cls-5" d="m123.3,78.52s33.86-8.19,44.05-1.92c7.78,4.79,17.72,40.7,17.72,40.7,0,0-22.71,28.48-32.8,28.85-9.82.36-37.83-23.1-37.83-23.1,0,0,4.67-35.91,8.86-44.53Z"/>
          <path class="cls-5" d="m43.57,189.77l28.09-8.3,37.23,23.62s-.36,14.52-6.11,18.99c-5.75,4.47-34.63-4.95-40.38-7.82s-20.43-22.98-18.83-26.49Z"/>
          <path class="cls-5" d="m173.43,218.71s6.38-14.46,9.8-20.8c3-5.56,24.1-20.03,29.85-30.56,0,0,6.02.97,6.72,4.08s-29.03,42.62-46.36,47.28Z"/>
          <path class="cls-5" d="m208.54,45.86v10.48s17.3,25.86,17.3,39.58c0,0,3.41,1.62,5.27,5.05,1.54,2.84-1.28-27.59-22.57-55.11Z"/>
          <path class="cls-2" d="m14.85,122.1c0,21,1.58,36.69,2.23,37.99,7.18,14.05,16.92,21.39,26.49,29.69"/>
          <path class="cls-2" d="m41.98,108.9c7.58,13.79,18.91,23.02,31.11,31.28l-1.43,41.29"/>
          <path class="cls-2" d="m108.89,205.17c7.46,0,28.37-8.38,42.65-17.64,0,0,4.34,2.79,6.46,3.79,6.1,2.87,10.65,5.03,26.37,5"/>
          <path class="cls-1" d="m106.62,19.63l-11.94,31.15c-.25.66-.4,1.77.37,2.52h0c.44.36,2.29,1.95,2.38,2.02l26.15,23.13"/>
          <line class="cls-2" x1="73.09" y1="140.18" x2="114.5" y2="123.29"/>
          <path class="cls-2" d="m50.44,68.23c7.1-4.07,19.7-15.68,44.04-15.68"/>
          <path class="cls-2" d="m49.56,23.26c-4.79,4.19-11.61,18.51-19.27,31.8"/>
          <path class="cls-2" d="m153.38,146.16c0,22.87-.82,41.37-1.84,41.37"/>
          <path class="cls-2" d="m102.21,224.44c0,3.85,15.82,6.97,35.37,6.97"/>
          <path class="cls-2" d="m185.06,117.31c7.9,1.76,17.8,6.54,30.64,10.69l1.42-1.87c11.57-16.04,8.71-28.77,8.71-30.69"/>
          <path class="cls-1" d="m167.35,76.61c9.5-15.38,12.85-28.85,13.49-30.75,0,0,1.2.13,1.92.34,5.03,1.45,18.51,6.35,25.78,10.14"/>
          <path class="cls-1" d="m147.17,17.09c14.59,7.89,30.55,19.38,34.06,28.77"/>
          <path class="cls-1" d="m215.71,128c0,22.04-1.04,38.38-2.94,39.88"/>
          <path class="cls-1" d="m17.08,160.08c-.88.56-2.98,2.02-6.67,2.02"/>
          <path class="cls-1" d="m61.13,215.46c0,1.5-1.29,2.21-1.78,2.21"/>
          <path class="cls-1" d="m83.34,8.78c0-.1-2.79-.18-6.23-.18"/>
          <path class="cls-6" d="m233.18,117.31c0,64-51.88,115.88-115.87,115.88-26.6,0-51.12-8.96-70.67-24.04,31.39,8.04,70.57,12.35,104.9-.86,69.75-26.85,78.28-85.76,75.92-127.04,3.71,11.35,5.72,23.47,5.72,36.06Z"/>
        </g>
      </g>
    </g>
  </g>
</svg>