<?xml version="1.0" encoding="UTF-8"?>
<svg xmlns="http://www.w3.org/2000/svg" viewBox="0 0 385 385">
  <defs>
    <style>
      .cls-1 {
        fill: #e0ba92;
        stroke: #414042;
        stroke-miterlimit: 10;
        stroke-width: 3px;
      }

      .cls-2 {
        fill: #fff;
      }

      .cls-3 {
        fill: #39b54a;
      }

      .cls-4 {
        fill: none;
        isolation: isolate;
      }

      .cls-5 {
        fill: #ff151b;
      }

      .cls-6 {
        fill: #231f20;
        mix-blend-mode: overlay;
        opacity: .5;
      }

      .cls-7 {
        fill: #006838;
      }
    </style>
  </defs>
  <g class="cls-4">
    <g id="Layer_2" data-name="Layer 2">
      <g id="SugarCookie">
        <g>
          <g>
            <path class="cls-1" d="m383.5,192.5c0,105.49-85.51,191-191,191-50.87,0-97.1-19.89-131.33-52.31C24.42,296.38,1.5,247.12,1.5,192.5,1.5,87.01,87.02,1.5,192.5,1.5c39.99,0,77.11,12.29,107.79,33.3,50.25,34.41,83.21,92.2,83.21,157.7Z"/>
            <path class="cls-3" d="m358.66,189.96c0,39.12,7.15,56.14-29.32,103.34-25.37,32.83-75.95,61.1-124.44,69.62-56.84,9.98-91.48-16.06-146.85-70.81-24.6-24.33-30.8-66.88-32.18-102.15-1.5-38.5,17.52-71.7,34.25-104.47,25.35-49.66,77.75-63.87,129.35-59.13,40.87,3.75,63.92-12.06,111.27,33.79s57.93,81.58,57.93,129.81Z"/>
            <circle class="cls-2" cx="112.67" cy="109.5" r="19.11"/>
            <circle class="cls-2" cx="296.45" cy="174.17" r="14.89"/>
            <circle class="cls-2" cx="146.12" cy="302.06" r="14.33"/>
            <circle class="cls-2" cx="286.12" cy="291.94" r="13.44"/>
            <circle class="cls-2" cx="75.34" cy="225.94" r="18.22"/>
            <circle class="cls-2" cx="236.23" cy="77.5" r="20"/>
            <circle class="cls-5" cx="147.89" cy="183.61" r="16.11"/>
            <circle class="cls-5" cx="294.12" cy="114.72" r="17.22"/>
            <circle class="cls-5" cx="236.23" cy="247.28" r="15.11"/>
            <circle class="cls-5" cx="95.45" cy="274.72" r="17.22"/>
            <circle class="cls-5" cx="326.89" cy="235.06" r="15.56"/>
            <circle class="cls-5" cx="164.56" cy="71.94" r="18.44"/>
            <circle class="cls-5" cx="212.12" cy="324.17" r="15"/>
            <circle class="cls-5" cx="72.45" cy="158.83" r="15.33"/>
            <circle class="cls-2" cx="216.23" cy="158.83" r="19.11"/>
            <circle class="cls-7" cx="164.06" cy="115.33" r="9.17"/>
            <circle class="cls-7" cx="192.23" cy="241.39" r="9.22"/>
            <circle class="cls-7" cx="333.34" cy="146.17" r="6.44"/>
            <circle class="cls-7" cx="313.06" cy="268.56" r="6.17"/>
            <circle class="cls-7" cx="159.73" cy="337.67" r="4.83"/>
            <circle class="cls-7" cx="95.34" cy="188.06" r="4.44"/>
            <circle class="cls-7" cx="109.78" cy="56.39" r="2.89"/>
            <circle class="cls-7" cx="277.12" cy="60.83" r="4.44"/>
            <circle class="cls-7" cx="191.67" cy="45.61" r="5.44"/>
            <circle class="cls-7" cx="45.39" cy="208" r="3.83"/>
            <circle class="cls-7" cx="244.73" cy="193.89" r="5.83"/>
            <circle class="cls-7" cx="128.23" cy="238.17" r="6"/>
            <circle class="cls-7" cx="69.78" cy="103.06" r="5.56"/>
            <circle class="cls-7" cx="226" cy="289.94" r="4.89"/>
            <circle class="cls-5" cx="213.03" cy="109.19" r="6.14"/>
            <circle class="cls-5" cx="329.13" cy="197.49" r="2.23"/>
            <circle class="cls-5" cx="199.28" cy="206.33" r="2.17"/>
            <circle class="cls-5" cx="153.34" cy="259.94" r="2.44"/>
            <circle class="cls-5" cx="111.67" cy="150.72" r="1.89"/>
            <circle class="cls-5" cx="150.62" cy="38.22" r="2.72"/>
            <circle class="cls-5" cx="248.03" cy="44.25" r="3.31"/>
            <circle class="cls-5" cx="265.56" cy="326.83" r="2.67"/>
            <circle class="cls-5" cx="280.34" cy="222.72" r="3.22"/>
            <circle class="cls-5" cx="60.67" cy="263.5" r="3.56"/>
            <circle class="cls-5" cx="120.56" cy="321.83" r="2.33"/>
            <circle class="cls-5" cx="265.98" cy="118.42" r="3.08"/>
            <circle class="cls-5" cx="90.67" cy="71.06" r="2.89"/>
            <circle class="cls-5" cx="314.78" cy="86.94" r="3.44"/>
            <circle class="cls-5" cx="51.34" cy="137.61" r="2.11"/>
            <circle class="cls-2" cx="163.67" cy="142.94" r="3.22"/>
            <circle class="cls-2" cx="265.56" cy="151.5" r="2.67"/>
            <circle class="cls-2" cx="274.78" cy="252.72" r="2.11"/>
            <circle class="cls-2" cx="163.67" cy="215.06" r="3.22"/>
            <circle class="cls-2" cx="176.09" cy="290.58" r="2.86"/>
            <circle class="cls-2" cx="47.31" cy="176.08" r="1.92"/>
            <circle class="cls-2" cx="125.56" cy="67.94" r="2.67"/>
            <circle class="cls-2" cx="215.75" cy="42.89" r="2.72"/>
            <circle class="cls-2" cx="233.56" cy="340.33" r="2.67"/>
            <circle class="cls-2" cx="290.12" cy="77.94" r="4"/>
            <circle class="cls-2" cx="331.23" cy="120.52" r="2.11"/>
            <circle class="cls-2" cx="109.28" cy="243.78" r="2.39"/>
            <circle class="cls-2" cx="111.67" cy="166.72" r="1.89"/>
            <circle class="cls-2" cx="199.28" cy="74.11" r="2.17"/>
            <circle class="cls-2" cx="336.12" cy="171.39" r="2.78"/>
          </g>
          <path class="cls-6" d="m383.5,192.5c0,105.49-85.51,191-191,191-50.87,0-97.1-19.89-131.33-52.31,26.46,12.75,54.75,22.78,83.8,27.03,16.14,2.36,32.51,2.94,48.94,1.21,43.98-4.63,86.75-25.68,116.03-59.04,41.51-47.28,48.11-113.38,34.17-172.97-1.5-6.41-3.29-13.13-5.39-19.99-7.94-25.86-20.36-53.54-38.43-72.63,50.25,34.41,83.21,92.2,83.21,157.7Z"/>
        </g>
      </g>
    </g>
  </g>
</svg>