<?xml version="1.0" encoding="UTF-8"?>
<svg id="Layer_2" data-name="Layer 2" xmlns="http://www.w3.org/2000/svg" viewBox="0 0 241 162.02">
  <defs>
    <style>
      .cls-1 {
        fill: none;
        stroke-width: .84px;
      }

      .cls-1, .cls-2, .cls-3, .cls-4, .cls-5 {
        stroke: #414042;
        stroke-miterlimit: 10;
      }

      .cls-2 {
        fill: #c7bd00;
      }

      .cls-2, .cls-3, .cls-4 {
        stroke-width: 2.23px;
      }

      .cls-3 {
        fill: #fff200;
      }

      .cls-4 {
        fill: #8c8500;
      }

      .cls-5 {
        fill: #c2151d;
        stroke-width: 1.26px;
      }
    </style>
  </defs>
  <g id="YellowLego">
    <g>
      <path class="cls-3" d="m19.23,1.12h-10.59c-3.17,0-6,1.99-7.08,4.97h0c-.3.82-.45,1.68-.45,2.55v137.9c0,1.24,1,2.24,2.24,2.24h15.68"/>
      <path class="cls-2" d="m18.23,148.78h64.85c1.06,0,2.1-.37,2.92-1.04h0c1.07-.87,1.68-2.18,1.68-3.56V6.73c0-1.3-.46-2.56-1.29-3.56h0c-1.06-1.27-2.62-2-4.27-2l-62.89-.05c-1.63,0-3.19.69-4.28,1.91-.02.02-.03.04-.05.05-.97,1.08-1.5,2.47-1.5,3.92.03,16.58.03,119.98.03,136.99,0,1.49.7,2.9,1.88,3.81h0c.84.64,1.86.99,2.91.99Z"/>
      <line class="cls-1" x1="64.52" y1="76.55" x2="87.68" y2="76.55"/>
      <line class="cls-1" x1="13.43" y1="76.55" x2="36.75" y2="76.55"/>
      <circle class="cls-4" cx="50.54" cy="111.01" r="13.79"/>
      <circle class="cls-4" cx="50.73" cy="74.95" r="13.79"/>
      <circle class="cls-4" cx="50.73" cy="38.14" r="13.79"/>
      <path class="cls-3" d="m227.03,106.23l8.25,6.21c.33.25.54.61.59,1.02l.28,2.2c.07.54-.07,1.08-.38,1.52l-4.57,6.52-9.09-8.06,5.24-6.44-.32-2.97Z"/>
      <polygon class="cls-3" points="196.17 96.19 200.52 90.46 200.05 86.08 207.98 91.21 204.53 91.86 199.33 98.49 196.17 96.19"/>
      <polygon class="cls-3" points="169.14 76.55 173.18 70.87 173.18 66.85 179.99 71.7 177.38 72.64 173.18 79.48 169.14 76.55"/>
      <polygon class="cls-3" points="143.01 57.55 146.4 51.83 146.4 48.29 152.33 52.92 150.17 53.8 145.72 59.52 143.01 57.55"/>
      <path class="cls-3" d="m199.33,98.49l4.68-5.96c.34-.43.81-.72,1.35-.82l1.66-.31c.62-.12,1.25.03,1.76.4l17.3,12.87c.54.4.89,1.01.96,1.68l.25,2.26c.07.63-.11,1.26-.51,1.76l-4.38,5.54-3.63-3.26-19.45-14.15Z"/>
      <path class="cls-3" d="m173.18,78.7l3.93-5.68c.17-.25.43-.42.72-.48l2.47-.53c.33-.07.68,0,.95.2l18.05,13.32c.47.35.78.88.84,1.46l.29,2.72c.05.49-.07.98-.34,1.38l-3.58,5.35-23.34-17.74Z"/>
      <path class="cls-3" d="m145.72,59.52l4.67-5.99c.2-.25.48-.41.8-.46l2.47-.33c.32-.04.63.04.89.23l18.2,13.56c.27.2.43.52.43.86v3.13c0,.22-.07.44-.2.62l-3.84,5.4-23.43-17.03Z"/>
      <path class="cls-3" d="m118.8,39.96l3.92-5.58c.16-.23.42-.39.7-.42l3.09-.35c.25-.03.49.04.69.18l18.7,13.49c.31.22.49.58.49.96v3.27c0,.21-.06.42-.17.6l-3.23,5.44-24.2-17.59Z"/>
      <polyline class="cls-5" points="219.58 160.34 201.53 145.85 193.42 139.59 181.21 130.89 105.03 76.55 91.99 66.85 90.57 66.85 106.74 82.9 209.17 156.02 215.29 160.17 219.58 160.34"/>
      <path class="cls-2" d="m88.3,61.66c-.56.75-.28.3-.48.79-.31.76-.1,1.63.51,2.18l19.35,19.21,1.31.93,105.3,74.89c.31.22.65.4,1.01.52h0c.38.13.78.19,1.18.19l3.1-.02"/>
      <path class="cls-2" d="m218.45,112.43l20.74,18.37s.08.07.12.11c.65.58.75,1.56.22,2.25h0c-.12.09-1.14,1.49-1.23,1.61l-1.68,2.36-6.09,8.56c-2.1,2.95-4.2,5.89-6.3,8.84-.89,1.25-1.76,2.52-2.68,3.76-.36.48-2.07,3.19-2.92,2.51l-22.59-18.51"/>
      <path class="cls-3" d="m218.64,112.52L110.52,33.94c-.27-.2-.59-.32-.92-.36h-.02c-.72-.08-1.42.23-1.84.82l-19.2,26.85c-.72,1.01-.71,2.36.01,3.36h0c.18.25.4.47.65.65l107.59,76.74c.75.54,1.8.33,2.29-.46h0s.04-.06.06-.09l19.74-27.35c.33-.45.28-1.07-.12-1.47h0s-.09-.08-.14-.12Z"/>
      <path class="cls-3" d="m155.39,119.34h-27.14v-7.32h0c0-.39.15-.76.43-1.04l1.34-1.34c.33-.33.77-.54,1.24-.6h0c.08,0,.15-.01.23-.01h21.7c.24,0,.48.04.7.12h0c.29.1.54.27.76.48l1.58,1.58c.14.14.25.31.33.49h0c.09.2.14.42.14.64v6.99h-1.32Z"/>
      <path class="cls-3" d="m120.4,119.53h-28.41l.1-6.93c0-.37.12-.74.35-1.04h0c.05-.07.1-.13.16-.19l1.93-1.93s.08-.07.12-.11h0c.25-.19.55-.3.86-.3h22.51c.5,0,.99.18,1.37.52h0s.06.05.09.08l1.64,1.64c.16.16.28.37.33.6h0c.02.1.03.19.03.29v7.36h-1.08Z"/>
      <path class="cls-3" d="m84.11,109.71c-.23-.25-.56-.4-.9-.4h0c-.6,0-1.2,0-1.8,0-.92,0-1.83,0-2.75,0-1.13,0-2.25,0-3.38,0-1.23,0-2.46,0-3.69,0s-2.45,0-3.67,0c-1.11,0-2.23,0-3.34,0-1.27,0-2.55,0-3.82,0-.29,0-.59,0-.88.07-.33.08-.55.26-.79.49-.57.55-1.12,1.12-1.68,1.68-.08.08-.15.16-.21.25-.21.31-.33.67-.33,1.04l-.13,6.71h29.25v-7.36c0-.1-.01-.2-.03-.29h0c-.06-.26-.18-.49-.37-.68l-1.33-1.33-.15-.16Z"/>
      <path class="cls-3" d="m48.67,109.48c-.25-.11-.53-.17-.8-.17h-23.02c-.08,0-.16,0-.24.02-.26.05-.5.17-.68.35l-1.64,1.61c-.08.08-.15.17-.21.26-.13.21-.19.45-.19.7l.13,7.28h27.6s.96,0,.96,0c0-1.77-.03-3.54,0-5.32.04-1.71-.06-3.92-1.91-4.73Z"/>
      <path class="cls-3" d="m165.01,155.77v-32.96c0-1.45-.95-2.73-2.34-3.14h0c-.31-.09-.62-.14-.94-.14H17.84c-.32,0-.64.05-.95.15h0c-1.23.41-2.06,1.56-2.06,2.85v32.07c0,1.18.55,2.3,1.48,3.03h0c.67.52,1.5.81,2.35.81h143.68c.96,0,1.84-.51,2.32-1.34h0c.23-.4.35-.86.35-1.32Z"/>
    </g>
  </g>
</svg>