<?xml version="1.0" encoding="UTF-8"?>
<svg xmlns="http://www.w3.org/2000/svg" viewBox="0 0 243.21 243.21">
  <defs>
    <style>
      .cls-1 {
        stroke-width: 1.49px;
      }

      .cls-1, .cls-2, .cls-3, .cls-4 {
        stroke: #414042;
        stroke-miterlimit: 10;
      }

      .cls-1, .cls-4, .cls-5 {
        fill: none;
      }

      .cls-2 {
        fill: #fff;
        stroke-width: 2.98px;
      }

      .cls-3 {
        fill: #fff200;
        stroke-width: 2.23px;
      }

      .cls-4 {
        stroke-width: 1.58px;
      }

      .cls-5 {
        isolation: isolate;
      }

      .cls-6 {
        fill: #231f20;
        mix-blend-mode: hard-light;
        opacity: .5;
      }
    </style>
  </defs>
  <g class="cls-5">
    <g id="Layer_2" data-name="Layer 2">
      <g id="YellowBall">
        <g>
          <path class="cls-2" d="m241.72,121.6c0,66.34-53.78,120.12-120.11,120.12-27.58,0-52.99-9.29-73.26-24.92C19.85,194.84,1.49,160.37,1.49,121.6,1.49,55.27,55.27,1.49,121.61,1.49c53.28,0,98.46,34.69,114.18,82.73,3.85,11.76,5.93,24.33,5.93,37.38Z"/>
          <path class="cls-3" d="m115.35,1.84s-33.25,5.76-28.49,7.92c5.46,2.48,23.16,10.59,23.16,10.59,0,0,32.73-2.7,40.37-2.32s2.98-12.3,2.98-12.3c0,0-16.02-4.46-38.02-3.89Z"/>
          <path class="cls-3" d="m31.6,57.08s19.79,6.81,20.64,14.77c.74,6.99-8.73,41.8-8.73,41.8l-28.13,12.93s-8.31-28.42-6.95-34.74c1.59-7.38,15.22-30.77,23.16-34.74Z"/>
          <path class="cls-3" d="m127.81,81.4s35.1-8.49,45.66-1.99c8.07,4.96,18.36,42.19,18.36,42.19,0,0-23.54,29.52-34,29.9-10.18.37-39.21-23.95-39.21-23.95,0,0,4.84-37.23,9.18-46.16Z"/>
          <path class="cls-3" d="m45.17,196.72l29.12-8.6,38.59,24.49s-.37,15.06-6.33,19.69-35.9-5.13-41.86-8.11c-5.96-2.98-21.18-23.82-19.52-27.46Z"/>
          <path class="cls-3" d="m179.78,226.71s6.61-14.99,10.16-21.56c3.11-5.76,24.98-20.76,30.94-31.68,0,0,6.24,1.01,6.96,4.23s-30.09,44.19-48.06,49.02Z"/>
          <path class="cls-3" d="m216.17,47.54v10.87s17.94,26.8,17.94,41.03c0,0,3.53,1.68,5.46,5.24,1.6,2.94-1.32-28.6-23.4-57.13Z"/>
          <path class="cls-1" d="m15.39,126.57c0,21.76,1.63,38.03,2.32,39.38,7.45,14.56,17.54,22.17,27.46,30.77"/>
          <path class="cls-1" d="m43.52,112.89c7.86,14.3,19.6,23.87,32.25,32.42l-1.48,42.8"/>
          <path class="cls-1" d="m112.88,212.68c7.73,0,29.41-8.69,44.22-18.28,0,0,4.49,2.89,6.7,3.93,6.33,2.98,11.04,5.21,27.34,5.19"/>
          <path class="cls-4" d="m110.52,20.35l-12.37,32.29c-.26.69-.41,1.83.38,2.62h0c.46.37,2.38,2.02,2.47,2.1l27.11,23.97"/>
          <line class="cls-1" x1="75.77" y1="145.32" x2="118.69" y2="127.81"/>
          <path class="cls-1" d="m52.28,70.73c7.36-4.22,20.42-16.26,45.65-16.26"/>
          <path class="cls-1" d="m51.37,24.11c-4.96,4.34-12.04,19.19-19.98,32.97"/>
          <path class="cls-1" d="m159,151.51c0,23.71-.85,42.89-1.9,42.89"/>
          <path class="cls-1" d="m105.96,232.66c0,3.99,16.4,7.22,36.67,7.22"/>
          <path class="cls-1" d="m191.84,121.6c8.19,1.82,18.45,6.78,31.77,11.09l1.47-1.94c11.99-16.63,9.02-29.83,9.02-31.81"/>
          <path class="cls-4" d="m173.47,79.41c9.84-15.94,13.32-29.9,13.98-31.88,0,0,1.24.13,1.99.35,5.22,1.51,19.19,6.59,26.73,10.52"/>
          <path class="cls-4" d="m152.56,17.72c15.12,8.18,31.67,20.09,35.31,29.82"/>
          <path class="cls-4" d="m223.61,132.69c0,22.85-1.08,39.79-3.04,41.34"/>
          <path class="cls-4" d="m17.71,165.94c-.91.58-3.09,2.09-6.91,2.09"/>
          <path class="cls-4" d="m63.37,223.35c0,1.56-1.33,2.29-1.84,2.29"/>
          <path class="cls-6" d="m241.72,121.6c0,66.34-53.78,120.12-120.11,120.12-27.58,0-52.99-9.29-73.26-24.92,32.54,8.33,73.16,12.81,108.74-.89,72.3-27.83,81.14-88.9,78.7-131.69,3.85,11.76,5.93,24.33,5.93,37.38Z"/>
          <path class="cls-4" d="m86.4,9.1c0-.1-2.89-.19-6.46-.19"/>
        </g>
      </g>
    </g>
  </g>
</svg>